<?xml version="1.0" encoding="UTF-8"?>
<svg id="Layer_2" data-name="Layer 2" xmlns="http://www.w3.org/2000/svg" viewBox="0 0 152.71 45.6">
  <defs>
    <style>
      .cls-1 {
        fill: #98d8e3;
      }
    </style>
  </defs>
  <g id="Layer_1-2" data-name="Layer 1">
    <path class="cls-1" d="M0,41.88V3.72L3.72,0h15.9l3.72,3.72v9.42h-7.62v-4.98l-.84-.9h-6.3l-.9.9v29.1l.9.9h6.3l.84-.9v-9.12h-3.72v-7.5h11.34v21.24l-3.72,3.72H3.72l-3.72-3.72Z"/>
    <path class="cls-1" d="M28.26,45.6V3.65h7.01v41.94h-7.01Z"/>
    <path class="cls-1" d="M40.13,42.18V7.08l3.42-3.42h14.63l3.42,3.42v8.67h-7.01v-4.58l-.77-.83h-5.8l-.83.83v26.77l.83.83h5.8l.77-.83v-8.39h-3.42v-6.9h10.43v19.54l-3.42,3.42h-14.63l-3.42-3.42Z"/>
    <path class="cls-1" d="M66.45,45.6V0h19.68l3.72,3.72v20.4l-3.72,3.72,3.72,17.76h-7.5l-3.72-17.76h-4.56v17.76h-7.62ZM81.39,20.46l.84-.9v-11.28l-.84-.84h-7.32v13.02h7.32Z"/>
    <path class="cls-1" d="M94.71,45.6V3.66h7.01v41.94h-7.01Z"/>
    <path class="cls-1" d="M124.34,3.66l3.42,3.42v35.1l-3.42,3.42h-17.77V3.66h17.77ZM119.87,38.76l.77-.83V11.16l-.77-.83h-6.24v28.42h6.24Z"/>
    <path class="cls-1" d="M132.62,45.6V3.66h20.09v6.79h-13.08v10.43h9.71v6.79h-9.71v11.15h13.08v6.79h-20.09Z"/>
  </g>
</svg>