<?xml version="1.0" encoding="UTF-8"?>
<svg id="Layer_2" data-name="Layer 2" xmlns="http://www.w3.org/2000/svg" viewBox="0 0 167.85 181">
  <defs>
    <style>
      .cls-1 {
        fill: #98d8e3;
      }
    </style>
  </defs>
  <g id="Layer_1-2" data-name="Layer 1">
    <path class="cls-1" d="M147.26,83.06l-49.02,5.45-24.52-50.39-4.42,76.6,37.79-2.72,3.06,54.21v4.27c-2.93.33-5.91.49-8.93.49-21.38,0-40.87-8.09-55.59-21.37l9.78-9.78-8-8-9.63,9.63c-10.58-12.53-17.53-28.22-19.18-45.47h13.47v-11.32h-13.78c.78-19.96,8.6-38.1,21.06-52.03l9.47,9.47,8-8-9.37-9.37c14.49-12.35,33.27-19.81,53.79-19.81,1.96,0,3.9.08,5.82.21h-.3v13.96h11.32V6.64c7.07,1.46,13.82,3.79,20.11,6.93C124.33,4.96,107.99,0,90.5,0,40.52,0,0,40.51,0,90.5s40.52,90.5,90.5,90.5c32.77,0,61.47-17.41,77.35-43.49l-20.59-54.45Z"/>
  </g>
</svg>