<?xml version="1.0" encoding="UTF-8"?>
<svg id="Layer_2" data-name="Layer 2" xmlns="http://www.w3.org/2000/svg" viewBox="0 0 62.17 62.27">
  <defs>
    <style>
      .cls-1 {
        fill: #98d8e3;
      }
    </style>
  </defs>
  <g id="Layer_1-2" data-name="Layer 1">
    <path class="cls-1" d="M57.94,21.4h-17.11V4.24c0-2.34-1.9-4.24-4.24-4.24h-10.91c-2.34,0-4.24,1.9-4.24,4.24v17.16H4.24c-2.34,0-4.24,1.9-4.24,4.24v11c0,2.34,1.9,4.24,4.24,4.24h17.2v17.16c0,2.34,1.9,4.24,4.24,4.24h10.91c2.34,0,4.24-1.9,4.24-4.24v-17.16h17.11c2.34,0,4.24-1.9,4.24-4.24v-11c0-2.34-1.9-4.24-4.24-4.24Z"/>
  </g>
</svg>